HIERARCHY
ROOT Hips
{
	OFFSET 0.00 0.00 0.00
	CHANNELS 6 Xposition Yposition Zposition Xrotation Yrotation Zrotation
	JOINT LeftUpLeg
	{
		OFFSET 3.29906 0.00000 0.00000
		CHANNELS 3 Xrotation Yrotation Zrotation
		JOINT LeftLeg
		{
			OFFSET 0.00000 -16.90256 0.00000
			CHANNELS 3 Xrotation Yrotation Zrotation
			JOINT LeftFoot
			{
				OFFSET 0.00000 -16.69398 0.00000
				CHANNELS 3 Xrotation Yrotation Zrotation
				JOINT LeftToeBase
				{
					OFFSET 0.00000 -1.46932 5.48360
					CHANNELS 3 Xrotation Yrotation Zrotation
					End Site
					{
						OFFSET 0.00000 0.00000 2.95275
					}
				}
			}
		}
	}
	JOINT RightUpLeg
	{
		OFFSET -3.29906 0.00000 0.00000
		CHANNELS 3 Xrotation Yrotation Zrotation
		JOINT RightLeg
		{
			OFFSET 0.00000 -16.90256 0.00000
			CHANNELS 3 Xrotation Yrotation Zrotation
			JOINT RightFoot
			{
				OFFSET 0.00000 -16.69398 0.00000
				CHANNELS 3 Xrotation Yrotation Zrotation
				JOINT RightToeBase
				{
					OFFSET 0.00000 -1.46932 5.48360
					CHANNELS 3 Xrotation Yrotation Zrotation
					End Site
					{
						OFFSET 0.00000 0.00000 2.95275
					}
				}
			}
		}
	}
	JOINT Spine
	{
		OFFSET 0.00000 0.03937 0.00000
		CHANNELS 3 Xrotation Yrotation Zrotation
		JOINT Spine1
		{
			OFFSET 0.00000 7.07715 0.00000
			CHANNELS 3 Xrotation Yrotation Zrotation
			JOINT Neck
			{
				OFFSET 0.00000 9.58345 0.00000
				CHANNELS 3 Xrotation Yrotation Zrotation
				JOINT Head
				{
					OFFSET 0.00000 6.23786 0.00000
					CHANNELS 3 Xrotation Yrotation Zrotation
					End Site
					{
						OFFSET 0.00000 4.52755 0.00000
					}
				}
			}
			JOINT LeftShoulder
			{
				OFFSET 0.00000 9.58345 0.00000
				CHANNELS 3 Xrotation Yrotation Zrotation
				JOINT LeftArm
				{
					OFFSET 7.67467 -0.00003 0.00000
					CHANNELS 3 Xrotation Yrotation Zrotation
					JOINT LeftForeArm
					{
						OFFSET 12.04206 -0.00004 0.00000
						CHANNELS 3 Xrotation Yrotation Zrotation
						JOINT LeftHand
						{
							OFFSET 9.71053 -0.00004 0.00000
							CHANNELS 3 Xrotation Yrotation Zrotation
							JOINT LeftHandThumb
							{
								OFFSET 0.00000 0.00000 0.00000
								CHANNELS 3 Xrotation Yrotation Zrotation
								End Site
								{
									OFFSET 0.00000 0.00000 3.93700
								}
							}
							JOINT L_Wrist_End
							{
								OFFSET 3.93700 -0.00001 0.00000
								CHANNELS 3 Xrotation Yrotation Zrotation
							}
						}
					}
				}
			}
			JOINT RightShoulder
			{
				OFFSET 0.00000 9.58345 0.00000
				CHANNELS 3 Xrotation Yrotation Zrotation
				JOINT RightArm
				{
					OFFSET -7.67467 -0.00003 0.00000
					CHANNELS 3 Xrotation Yrotation Zrotation
					JOINT RightForeArm
					{
						OFFSET -12.04206 -0.00004 0.00000
						CHANNELS 3 Xrotation Yrotation Zrotation
						JOINT RightHand
						{
							OFFSET -9.71053 -0.00004 0.00000
							CHANNELS 3 Xrotation Yrotation Zrotation
							JOINT RightHandThumb
							{
								OFFSET 0.00000 0.00000 0.00000
								CHANNELS 3 Xrotation Yrotation Zrotation
								End Site
								{
									OFFSET 0.00000 0.00000 3.93700
								}
							}
							JOINT R_Wrist_End
							{
								OFFSET -5.39369 -0.00002 0.00000
								CHANNELS 3 Xrotation Yrotation Zrotation
							}
						}
					}
				}
			}
		}
	}
}
MOTION
Frames: 6
Frame Time: 0.008333
 -84.8799 34.6706 -6.2296 56.9926 83.6773 -58.5180 -1.7913 6.9701 8.5074 15.1212 -0.0000 0.0000 -9.0277 -8.6950 4.2676 -13.5780 -0.0000 -0.0000 0.7994 -1.6877 -5.1162 10.8922 -0.0000 0.0000 -21.4840 -4.9465 14.7661 -10.0454 0.0000 -0.0000 -3.6219 0.0367 -0.6796 13.6880 -4.7971 -0.9577 -6.1956 17.6665 0.3136 -18.7760 -5.2406 -0.7401 22.5484 22.9282 9.9413 -13.1940 -6.7155 -100.6218 -0.0001 -25.1693 -0.0000 -15.5334 -6.7867 -14.3548 -0.0000 0.0000 0.0000 -0.0000 0.0000 0.0000 19.3736 -15.4703 -4.1841 -34.3781 46.1925 96.2320 -0.0002 39.2689 0.0001 -8.7881 10.1849 0.4436 -0.0000 0.0000 0.0000 -0.0000 0.0000 0.0000
 -84.7530 34.6323 -6.2810 57.0030 83.6142 -58.6467 -1.9320 6.5595 8.4954 15.8593 -0.0000 0.0000 -9.4191 -8.2074 4.6734 -13.5619 -0.0000 -0.0000 1.0215 -1.8183 -5.1220 10.7276 0.0000 -0.0000 -21.4978 -4.8053 15.0336 -10.0721 -0.0000 -0.0000 -3.3043 0.1001 -0.5911 13.6678 -4.6896 -0.8855 -6.3704 17.5961 0.2916 -18.7616 -5.2169 -0.8462 22.7440 22.8894 9.8215 -13.0807 -7.3705 -100.6729 -0.0001 -25.4288 -0.0000 -16.0596 -6.8096 -13.8722 -0.0000 -0.0000 -0.0000 -0.0000 -0.0000 -0.0000 18.8901 -15.6493 -4.3452 -35.6463 48.2008 97.0477 -0.0002 41.5398 0.0001 -7.7498 9.3749 0.8451 0.0000 -0.0000 0.0000 0.0000 -0.0000 0.0000
 -84.6262 34.5920 -6.3295 57.8615 83.5101 -59.6337 -2.1933 6.1484 8.5074 16.6424 0.0000 -0.0000 -9.8618 -7.7766 4.9863 -13.5270 -0.0000 0.0000 1.1729 -1.8321 -5.0872 10.5802 -0.0000 0.0000 -21.5026 -4.8361 15.1654 -10.0263 0.0000 0.0000 -2.9743 0.1336 -0.5175 13.4911 -4.6102 -0.8048 -6.5375 17.5500 0.3188 -18.6467 -5.2015 -0.9515 22.9036 22.8327 9.7387 -12.8715 -8.0823 -100.5907 -0.0001 -25.8724 -0.0000 -16.1704 -6.8290 -13.2583 -0.0000 -0.0000 -0.0000 -0.0000 -0.0000 -0.0000 18.6641 -15.7130 -4.5448 -37.0366 49.8093 97.8606 -0.0002 43.6230 0.0001 -5.9942 9.5129 1.2330 0.0000 0.0000 -0.0000 0.0000 0.0000 -0.0000
 -84.4996 34.5489 -6.3795 58.6372 83.3528 -60.5567 -2.4605 5.6911 8.5260 17.3918 -0.0000 0.0000 -10.3228 -7.2630 5.2081 -13.5024 -0.0000 -0.0000 1.2579 -1.7333 -5.0297 10.4913 0.0000 -0.0000 -21.5336 -4.9108 15.2944 -10.0055 0.0000 0.0000 -2.6823 0.1479 -0.4215 13.3168 -4.5687 -0.7482 -6.5981 17.5528 0.2679 -18.7039 -5.1842 -0.9446 23.0599 22.8971 9.6345 -12.6696 -8.9881 -100.4098 -0.0001 -26.5556 -0.0000 -15.5311 -6.8261 -12.4453 0.0000 0.0000 -0.0000 0.0000 0.0000 -0.0000 18.4587 -15.6306 -4.8744 -38.3339 51.1618 98.6698 -0.0002 45.8151 0.0001 -4.1941 9.9072 1.4537 -0.0000 -0.0000 -0.0000 -0.0000 -0.0000 -0.0000
 -84.3519 34.5063 -6.4378 59.5119 83.1328 -61.5363 -2.7572 5.5081 8.5109 18.0951 0.0000 0.0000 -10.7406 -6.8807 5.5194 -13.5010 -0.0000 -0.0000 1.3514 -1.7122 -5.0332 10.3030 -0.0000 0.0000 -21.5000 -4.8953 15.3127 -10.0251 -0.0000 -0.0000 -2.4941 0.2574 -0.3311 13.1486 -4.4308 -0.6992 -6.6836 17.4572 0.2041 -18.6780 -5.2292 -0.9601 23.1781 22.8443 9.5459 -12.4607 -9.9627 -100.0745 -0.0001 -27.3050 -0.0000 -14.4205 -6.7929 -11.7324 0.0000 0.0000 -0.0000 0.0000 0.0000 -0.0000 18.3640 -15.6604 -5.0912 -39.3992 52.0646 99.2079 -0.0002 48.1176 0.0001 -1.7399 10.1453 1.8291 -0.0000 0.0000 -0.0000 -0.0000 0.0000 -0.0000
 -84.2095 34.4616 -6.4995 60.6760 82.8999 -62.8136 -3.0655 5.2304 8.4905 18.7656 -0.0000 0.0000 -11.1690 -6.3687 5.7664 -13.4887 0.0000 0.0000 1.3852 -1.6703 -5.0217 10.1619 0.0000 0.0000 -21.4072 -4.9133 15.2432 -10.0367 -0.0000 -0.0000 -2.2871 0.3535 -0.2466 12.9582 -4.3086 -0.6532 -6.7709 17.3677 0.1908 -18.7095 -5.2690 -1.0107 23.2408 22.8851 9.4912 -12.2961 -11.0244 -99.6874 -0.0001 -28.1156 -0.0000 -12.9097 -6.7574 -11.0703 -0.0000 0.0000 0.0000 -0.0000 0.0000 0.0000 18.1951 -15.6867 -5.3093 -40.3378 52.9428 99.6058 -0.0003 50.4521 0.0001 0.4558 10.3314 2.4167 -0.0000 -0.0000 -0.0000 -0.0000 -0.0000 -0.0000
